<svg preserveAspectRatio="none" width="100%" height="100%" overflow="visible" style="display: block;" viewBox="0 0 16.0181 13.8783" fill="none" xmlns="http://www.w3.org/2000/svg">
<path id="Vector" d="M13.0729 5.3378C12.9822 5.3378 12.5912 5.34046 12.4501 5.34814L10.5228 5.39885L6.07841 0H3.983L6.47141 5.49159L3.22503 5.53963L1.74779 3.73646H0.00934113L0.696916 6.87842C0.70192 6.89643 0.707925 6.91411 0.714597 6.93146C0.715089 6.93309 0.715089 6.93483 0.714597 6.93647C0.707731 6.95369 0.701828 6.97129 0.696916 6.98918L0 10.1418H1.72744L3.24371 8.30694L6.47208 8.37934L3.98266 13.8783H6.08442L10.5215 8.48209L12.4487 8.53347C12.5919 8.54114 12.9825 8.54381 13.0713 8.54381C13.8836 8.54381 14.5482 8.43238 15.0466 8.2122C15.892 7.83989 16.0181 7.25473 16.0181 6.93913C16.0181 5.9363 14.9171 5.3378 13.0729 5.3378Z" fill="var(--fill-0, #676767)"/>
</svg>
